<?xml version="1.0" encoding="UTF-8"?><svg id="Calque_1" xmlns="http://www.w3.org/2000/svg" viewBox="0 0 127.56 127.56"><defs><style>.cls-1{stroke-width:0px;}</style></defs><path class="cls-1" d="m36.12,36.18c-1.79-.56-3.56-1.08-5.3-1.67-3.21-1.08-6.32-2.35-9.21-4.16-2.67-1.68-3.7-4.15-3.86-7.16-.22-4.04.23-8.04.98-11.99.59-3.1,1.32-6.17,2-9.25.3-1.34,1.46-2.13,2.74-1.9,1.25.23,2.03,1.31,1.9,2.67-.4,4.15-.9,8.29-1.16,12.45-.14,2.32.09,4.68.22,7.01.08,1.36.8,2.39,1.92,3.18,2.55,1.81,5.41,3.04,8.26,4.28.9.39,1.82.77,2.75,1.09.24.08.62.03.82-.12,2.24-1.65,5.16-.58,5.8,2.14.05.2.19.45.36.55,1.25.71,1.72,1.63,1.42,2.84-.27,1.09-1.17,1.68-2.66,1.73-.71,3.25-1.42,6.52-2.15,9.89,1.21-.07,2.31-.13,3.42-.21,7.66-.52,15.31-1.06,22.97-1.57,7.68-.52,15.36-1.02,23.04-1.54,4.55-.3,9.11-.61,13.66-.92,1.87-.13,3.36.77,3.9,2.39.53,1.56-.04,3.3-1.44,4.14-.53.32-1.19.55-1.8.59-6.13.44-12.26.83-18.39,1.24-3.99.27-7.98.55-11.96.8-.5.03-.78.22-1.02.66-2.03,3.62-3.57,7.41-4.08,11.57-.43,3.48-.09,6.89.71,10.28.05.21.24.44.42.57,6.29,4.47,10.28,10.61,12.84,17.77,1.86,5.22,2.72,10.64,2.89,16.17.14,4.43-.11,8.83-.76,13.21-.43,2.92-3.3,5.03-6.17,4.6-3.14-.47-5.26-3.16-4.86-6.17.67-5.06.94-10.12.35-15.2-.76-6.59-2.71-12.72-7.06-17.9-1.33-1.58-2.9-2.89-4.65-3.97-.15-.1-.35-.12-.61-.2.09,1.46.18,2.84.24,4.21.21,4.32,0,8.63-.55,12.93-1.01,8.01-3.21,15.68-6.64,22.99-1,2.14-2.72,3.29-5.1,3.3-2.31,0-4.02-1.08-5.04-3.14-.82-1.65-.72-3.33.06-5,2.87-6.15,4.74-12.59,5.6-19.31,1.03-8.08.67-16.09-1.36-24.01-1.21-4.73-2.21-9.52-2.39-14.43-.09-2.31-.01-4.63-.01-7.05-.89.05-1.96.1-3.02.17-2.46.17-4.92.36-7.38.52-2.5.16-4.31-1.98-3.78-4.44,1.02-4.75,2.06-9.49,3.09-14.24.03-.12.04-.24.07-.38Z"/><path class="cls-1" d="m75.02,34.44c0,5.49-4.46,9.95-9.99,10-5.58.04-10.08-4.53-10.06-10.23.01-5.4,4.57-9.87,10.04-9.87,5.57,0,10.02,4.49,10.01,10.1Z"/></svg>