<?xml version="1.0" encoding="UTF-8"?>
<svg id="Calque_1" data-name="Calque 1" xmlns="http://www.w3.org/2000/svg" viewBox="0 0 127.56 127.56">
  <circle cx="27.64" cy="66.57" r="5.87"/>
  <path d="m49.16,77.61c-.75-1.23-2.35-1.62-3.58-.87l-6.5,3.97-3.72-6.1c-.21-.34-.54-.56-.9-.64-.35-.28-.78-.44-1.25-.44h-11.19c-1.21,0-2.19,1.1-2.19,2.46v22.77c0,.13.02.25.06.36.01.05.02.1.04.15l4.12,11.68-3.32,12.16c-.5,1.82.41,3.74,2.03,4.29h0c1.62.56,3.33-.46,3.83-2.28l3.85-14.09s.01-.06.02-.09c0-.03.01-.06.02-.09,0,0,0,0,0-.01.02-.17.01-.35-.05-.52l-1.94-5.51s-1.44-6.07,3.69-.94l5.46,7.33v11.24c0,1.9,1.37,3.44,3.06,3.44s3.06-1.54,3.06-3.44v-13.26c0-.41-.17-.77-.42-1.02-.02-.04-.04-.08-.07-.11l-7.85-10.55v-10.89c1.21.72,2.76.77,4.04-.01l8.85-5.4c1.23-.75,1.62-2.35.87-3.58Z"/>
  <path d="m107.66,35.87c-.11-1.17-.16-2.35-.2-3.52-.24-6.04-.52-12.07-.7-18.11-.1-3.52-.05-7.05-.04-10.57,0-.6-.2-.75-.78-.7-1.63.12-3.28.35-4.9.23-6.85-.51-13.7-1.11-20.55-1.71-5.02-.45-10.03-.96-15.04-1.43-.45-.04-.92,0-1.46,0,0,.26-.03.43,0,.59.18.75-.16.98-.86.98-.49,0-.98.1-1.46.2-3.5.69-6.57,2.36-9.59,4.14-3.29,1.95-6.55,3.97-9.9,5.81-2.38,1.31-4.96,2.02-7.75,1.51-.21-.04-.63.22-.69.42-.46,1.55-.77,1.42,1.04,1.78.13.03.27.03.41.04,2.25.25,4.27-.54,6.24-1.44,4.48-2.04,8.6-4.69,12.46-7.72,2.9-2.29,6.08-3.21,9.73-2.86.85.08,1.33.35,1.79,1.1,2,3.25,4.53,5.72,8.7,5.84,1.8.05,3.58.44,5.37.72.38.06.84.24,1.05.53.92,1.24,1.64,2.6,1.59,4.21-.04,1.34-.06,2.68-.19,4.02-.19,1.88.34,3.46,1.7,4.75.42.4.33.72.02,1.13-.59.76-1.19,1.5-1.7,2.31-4.83,7.75-10.86,14.4-18.32,19.7-4.33,3.08-8.98,5.56-14.13,6.97-2.21.6-4.5.91-6.75,1.38-.27.06-.68.24-.74.44-.35,1.28.1,1.78,1.38,1.63.11-.01.22-.03.33-.04,5.19-.79,9.96-2.69,14.46-5.34,7.59-4.45,14.01-10.29,19.82-16.82,2.51-2.82,4.8-5.82,7.19-8.74.28-.35.54-.8,1.03-.32.02.02.04.03.06.05l-33.6,44.29c-.5-.93-1.41-1.48-2.32-1.3l-13.5,4.9,2.72,4.4,1.06-.62,5.36-3.27c1.08-.66,2.45-.44,3.28.46l2.13-.69c1.17-.24,1.88-1.59,1.59-3.02-.02-.09-.05-.16-.07-.25l33.8-44.55c.93.64,2.02.74,3.14.8,1.67.08,3.34.18,5,.26.69.03,1.12.37,1.3,1.04.1.37.2.74.29,1.11.39,1.71.97,3.33,2.33,4.52,1.92,1.66,3.27,3.74,4.47,5.93.2.37.26.98.1,1.36-1.08,2.54-2.16,5.08-3.39,7.55-2.19,4.4-5.37,7.89-9.71,10.28-1,.55-2.02,1.12-2.89,1.85-3.24,2.7-3.99,6.45-4.18,10.4,0,.15.24.38.42.45.25.09.55.03.81.08.63.12.88-.1.93-.76.07-.98.19-1.96.41-2.92.7-3.07,2.11-5.69,4.64-7.71,5.86-4.68,10.68-10.26,14.14-16.95.09-.17.1-.37.15-.56.1.08.21.17.31.25.22.42.43.83.76,1.46.23-.7.42-1.18.55-1.66.73-2.72,1.64-5.4,1.37-8.29Z"/>
</svg>