<?xml version="1.0" encoding="UTF-8"?>
<svg id="Calque_1" data-name="Calque 1" xmlns="http://www.w3.org/2000/svg" viewBox="0 0 127.56 127.56">
  <path d="m66.74,69.73c-.83-.67-1.58-1.26-2.32-1.86-.17-.14-.32-.29-.54-.51.29-.19.54-.33.75-.51.36-.31.78-.59,1.03-.97,1.46-2.19,2.87-4.4,4.32-6.6.46-.7.8-1.4.79-2.26,0-.29.18-.62.36-.87.55-.79,1.16-1.54,1.72-2.32.26-.36.51-.74.67-1.15.39-1.01-.15-1.99-1.21-2.2-.43-.09-.89-.07-1.33-.04-4.76.34-9.52.71-14.29,1.05-4.98.35-9.97.67-14.96,1.01-.41.03-.81.07-1.22.12-2.18.27-3.17,1.37-3.13,3.53.06,3.22.13,6.43.21,9.65.16,6.88.32,13.75.49,20.63.05,2.18.07,4.36.18,6.54.03.68-.18,1.11-.7,1.5-4.7,3.54-9.37,7.12-14.09,10.64-2.05,1.52-4.16,2.97-6.29,4.37-3.41,2.24-6.88,4.37-10.67,5.92-1.05.43-2.2.63-3.31.91-.28.07-.59.07-.88.05-1.4-.1-2.2-.84-2.29-2.23-.05-.73-.04-1.5.15-2.2,1.05-3.89,2.05-7.81,3.27-11.65,3.61-11.37,7.88-22.5,12.47-33.51,2.63-6.32,5.33-12.62,7.98-18.94.29-.69.67-1.18,1.37-1.49,2.16-.97,4.3-2.01,6.45-2.99,6.07-2.77,12.13-5.55,18.22-8.27,6.94-3.09,13.88-6.18,20.87-9.15,10.2-4.33,20.42-8.6,30.68-12.77,5.28-2.15,10.67-4.06,16.03-5.99,2.15-.78,4.38-1.36,6.59-1.96.63-.17,1.33-.18,1.98-.1,1.18.15,1.59.75,1.4,1.93-.24,1.49-.93,2.83-1.79,4.03-1.57,2.19-3.19,4.37-4.92,6.43-4.01,4.77-8.41,9.16-12.87,13.5-6.18,6.02-12.32,12.08-18.59,18.01-6.16,5.82-12.45,11.51-18.69,17.24-1.25,1.15-2.53,2.27-3.89,3.5Zm-29.82-16.82c-.12-.13-.17-.24-.27-.28-3.31-1.79-6.62-3.58-9.95-5.34-.73-.39-.88-.26-1.1.77.26.16.53.35.82.51,1.56.85,3.11,1.69,4.67,2.53,1.5.8,2.99,1.62,4.49,2.39.79.41.9.34,1.32-.57Z"/>
  <path d="m75.21,83.17c-.23.29-.46.57-.73.9.2.2.36.39.55.54,1.84,1.42,3.71,2.82,5.54,4.27.55.44,1.1.52,1.75.41,3.39-.58,6.8-1.1,10.18-1.73,2.09-.38,3.58,1.14,3.18,3.44-.17.96-.85,1.56-1.79,1.78-1.12.25-2.25.45-3.38.64-2.99.49-6,.92-8.99,1.46-1.23.22-2.19-.04-3.17-.84-2.36-1.91-4.79-3.72-7.2-5.57-.21-.16-.4-.36-.64-.44-1.78-.59-3.03-1.96-4.45-3.06-3.33-2.59-6.61-5.23-9.91-7.85-.05-.04-.13-.05-.35-.12-.11.32-.29.63-.34.96-.32,1.97-1.35,3.53-2.67,4.98-1.54,1.7-2.96,3.51-4.43,5.27-1.17,1.41-1.67,1.53-3.45.77-.85,1.12-1.72,2.26-2.59,3.4-.6.8-1.18,1.61-1.81,2.39-.2.25-.54.38-1,.69-.07-.79-.15-1.33-.16-1.87-.14-5.47-.27-10.94-.4-16.41-.16-6.87-.32-13.75-.48-20.62,0-.33-.02-.67.01-1,.1-1.05.67-1.71,1.73-1.85,1.36-.17,2.73-.24,4.09-.34,4.58-.33,9.15-.65,13.73-.98,4.36-.31,8.71-.62,13.07-.91.48-.03,1.1-.26,1.39.35.29.59-.24.96-.53,1.36-.65.9-1.35,1.77-1.99,2.67-.18.25-.39.61-.33.87.17.82-.19,1.44-.6,2.06-1.08,1.64-2.17,3.27-3.25,4.91-.02.03-.04.06-.06.09-.69,1.36-1.62,2.46-3.14,2.95-.2.06-.36.25-.64.46.4.33.75.63,1.11.92,3.35,2.68,6.72,5.34,10.06,8.03.79.63,1.64,1.09,2.61,1.41,3.03.99,6.04,2.03,9.04,3.09.76.27,1.49.33,2.28.18,3.39-.62,6.78-1.23,10.16-1.83.15-.03.3-.04.44-.07,1.48-.38,2.95.62,3.14,2.16.21,1.66-.52,2.83-2.18,3.15-2.51.48-5.02.93-7.53,1.39-1.16.21-2.34.37-3.5.63-1.38.31-2.7.21-4.03-.26-2.61-.93-5.25-1.81-7.88-2.7-.14-.05-.28-.07-.46-.11Zm-6.4-27.41c.55-.78,1.02-1.39,1.43-2.05.36-.58.16-1.01-.51-1.14-.43-.08-.88-.04-1.32-.01-4.95.35-9.89.7-14.84,1.05-3.91.28-7.83.55-11.74.86-1.65.13-2.32.89-2.29,2.52.05,2.4.11,4.8.17,7.21.15,6.21.3,12.42.44,18.63.06,2.74.12,5.47.19,8.21,0,.4-.06.89.43,1.04.48.15.72-.29.96-.61.72-.94,1.44-1.88,2.13-2.84.18-.25.36-.61.31-.88-.15-.86.2-1.51.72-2.12,1.33-1.59,2.61-3.22,4.01-4.75,1.33-1.46,2.35-3.03,2.64-5.01.06-.44.22-.86.36-1.28.13-.4.15-.75-.07-1.16-.5-.91-.32-1.78.32-2.58,1.32-1.64,2.61-3.31,3.98-4.92.47-.55,1.1-.98,1.72-1.37.94-.59,1.95-1.07,2.9-1.63.34-.2.65-.49.87-.81.82-1.19,1.6-2.4,2.4-3.61.59-.9,1.16-1.81,1.79-2.68.55-.76,1.18-.93,2.04-.59.34.13.64.35.97.54Z"/>
  <path d="m69.05,53.66c-.33.27-.47.46-.64.5-.2.04-.43-.05-.65-.08-1.3-.2-2.29.24-3.02,1.38-1.15,1.81-2.36,3.58-3.52,5.39-.41.64-.87,1.17-1.57,1.51-.93.45-1.84.95-2.73,1.48-.62.37-1.18.82-1.8,1.25-.35-3.6-2.24-6.08-5.94-6.92-1.7-.38-3.4-.15-4.95.71-1.5.83-2.54,2.11-3.45,3.61-.03-.32-.08-.63-.09-.95-.04-1.48-.06-2.95-.09-4.43-.02-1.2.25-1.5,1.46-1.59,6.53-.46,13.06-.92,19.59-1.38,2.1-.15,4.2-.31,6.31-.46.28-.02.56-.01,1.08-.02Z"/>
  <path d="m45.42,59.53c2.76-1.25,6.77-.08,8.13,3.47,1.28,3.33-.22,6.76-3.56,8.08-3.19,1.26-6.77-.3-8.05-3.5-1.27-3.19.3-6.81,3.47-8.06Z"/>
  <path d="m41.38,89.78c-.17-7.14-.33-14.28-.51-21.69,2.22,3.92,5.39,5.18,9.43,4.16.59,1.27.46,2.44.12,3.7-.39,1.42-.97,2.66-1.96,3.77-1.53,1.7-2.94,3.52-4.42,5.26-.6.7-.98,1.45-.98,2.4,0,.31-.11.65-.28.91-.35.54-.78,1.04-1.17,1.55-.07-.02-.14-.05-.22-.07Z"/>
</svg>