<?xml version="1.0" encoding="UTF-8"?><svg id="Calque_1" xmlns="http://www.w3.org/2000/svg" viewBox="0 0 127.56 127.56"><defs><style>.cls-1{stroke-width:0px;}</style></defs><path class="cls-1" d="m51.51.64c-.7-.29-1.44-.5-2.2-.62-.02,0-.04,0-.06,0-.74,0-1.42-.06-2.19.03-.21.05-.32.07-.47.09-5.07.86-9.1,3.3-11.66,7.87-.8,1.43-1.52,2.98-1.15,4.67.4,1.85,1.48,3.34,3.06,4.38,1.3.86,2.27.74,3.43-.3.72-.64,1.42-1.32,2.15-1.95,3.72-3.25,7.67-6.15,12.25-8.09.51-.22,1.04-.41,1.6-.63-.91-2.47-2.32-4.42-4.77-5.44Z"/><path class="cls-1" d="m71.84,17.08c-.16-2.77-.77-5.4-2.77-7.46-2.76-2.84-5.74-5.43-9.19-7.42-1.07-.61-2.2-1.11-3.33-1.6-.3-.13-.66-.14-1.06-.02-.02.35.12.67.28.95.55.95,1.23,1.84,1.7,2.82,2.85,5.91,3.36,12.16,2.54,18.56-.68,5.29-2.07,10.41-3.89,15.42-.3.83-.6,1.67-.77,2.54-.27,1.35.42,2.72,1.52,3.28,2.89,1.48,6.2.86,8.22-1.66,1.07-1.33,2.04-2.77,2.87-4.27,2.91-5.24,4.01-10.94,4.05-17.58-.04-.73-.1-2.15-.18-3.57Z"/><path class="cls-1" d="m14.98,36.2c3.05.02,5.61-2.55,5.58-5.59-.03-3.05-2.54-5.51-5.58-5.5-3.05.01-5.54,2.5-5.54,5.54,0,3.03,2.49,5.53,5.54,5.55Z"/><path class="cls-1" d="m49.68,73.64c-2.55-1.91-5.61-3.03-8.67-3.82-3.92-1.01-7.93-1.44-11.97-1.45-.54,0-.82-.18-1.04-.66-.48-1.05-1.04-2.06-1.54-3.1-.73-1.53-1.76-2.8-3.09-3.86-3.15-2.52-6.27-5.08-9.39-7.62q-1.3-1.06-.27-2.39s.09-.05.17-.1c.75.69,1.67.82,2.67.81,5.19-.02,10.38-.02,15.57,0,.31,0,.72.2.91.45,1.55,1.92,3.06,3.88,4.6,5.82.23.29.46.67.77.8.41.17.98.29,1.33.13.36-.17.73-.7.77-1.1.04-.41-.24-.92-.52-1.29-1.43-1.88-2.9-3.73-4.36-5.6-2.57-3.28-5.13-6.57-7.71-9.84-.61-.77-1.39-.92-2.04-.44-.68.5-.75,1.32-.15,2.13.38.52.79,1.02,1.19,1.53.84,1.07,1.68,2.15,2.5,3.2h-2.86c-2.39,0-4.79.01-7.18,0-.7,0-1.39-.1-2.08-.18-.6-.07-.98-.38-1.24-.98-.95-2.2-1.95-4.38-2.93-6.55.77.16,1.42.48,1.77,1.39.54,1.42,1.22,2.78,1.84,4.17.09.01.19.02.28.04.23-.76.45-1.52.73-2.46,1.69-.78,3.58-1.68,5.48-2.54,1.12-.51,1.88-1.32,2.3-2.46,1.32-3.57,2.66-7.14,3.95-10.73.2-.56.28-1.21.26-1.81-.03-.76-.41-1.41-1.17-1.7-.7-.27-1.44-.15-1.94.41-.49.54-.94,1.18-1.21,1.86-1.22,3.09-2.39,6.21-3.54,9.33-.35.93-.93,1.53-1.9,1.79-.96.26-1.94.49-2.84.9-1.9.88-3.63.8-5.25-.58-.14-.12-.33-.18-.5-.26-1.43-.71-2.14-.5-2.91.89-2.34,4.2-4.68,8.4-7.01,12.6-.23.42-.45.86-.57,1.32-.52,1.98.25,3.71,2.2,4.89,4.71,2.85,9.43,5.69,14.14,8.54.44.26.91.51,1.25.88.72.78,1.37,1.64,2.09,2.52-2.5.35-4.77.61-7.02.99-1.78.3-3.6.77-5.3,1.39-1.18.43-2.33,1.1-2.99,2.17-.75,1.22-.8,2.93-.3,4.25.37.98,1.14,1.59,2.05,2.03,2.18,1.06,4.53,1.7,6.91,2.12.09.02.19.03.28.05,3.48.6,7.02.94,10.56,1.03,2.85.07,5.71-.02,8.55-.28,5.73-.52,11.88-1.51,16.53-5.16.5-.39,1.01-.88,1.08-1.51.09-.81-.59-1.49-1.24-1.98Z"/><path class="cls-1" d="m70.35,107.14c.31-.11.64-.17.98-.19h0c1.28-.27,2.46-.56,3.65-.73.63-.09.93-.4,1.17-.95.68-1.55,1.43-3.07,2.1-4.63.69-1.6,1.79-2.74,3.35-3.53,3.88-1.97,7.74-3.99,11.6-6,.26-.13.63-.3.69-.53.42-1.62,2.02-7.33,2.43-9.13-1.04.42-5.05,1.94-5.13,1.98-.1.05-.49.17-1,.33-.31.06-.62.13-.93.17-.12.02-7.04-.73-9.99-1.19-.39-.06-.76-.1-1.11-.14-.32-.09-.64-.22-.93-.39-.25-.14-.48-.56-.7-.73-.08-.09-.15-.17-.22-.27-.21-.27-.39-.57-.55-.88,0-.01,0-.03,0-.05-.1-.31-.18-.64-.18-.97,0-.25.03-.49.03-.74,0-.01.01-.03.01-.04.77-1.89,2.38-3.53,4.51-3.28,2.89.34,5.76.72,8.65,1.04.51.06,1.09.23,1.56.04,2.67-1.07,5.31-2.19,7.96-3.29.71-.3,2.21-.67,2.96-.98-.02,0-1.04-.83-1.23-1.03-.34-.38-.6-.68-.85-1.12-.25-.42-.44-1.03-.58-1.5-.15-.49-.14-1.27-.19-1.78-.03-.29.08-1.4.05-1.53-1.41-6.39-2.7-13.08-5.67-18.95-1.02-2.01-2.22-3.93-3.36-5.92,1.24-2.03,1.23-2.37-.1-3.26h-.91c-.35.4-.76.77-1.06,1.21-2.56,3.73-4.73,7.66-6.59,11.78-7.26,16.07-10.35,33.12-11.76,50.54-.18,2.2-.29,4.4-.39,6.6.3.05.65.11.99.15.25-.03.51-.06.76-.1Z"/><path class="cls-1" d="m63.93,117.74c1.2,1.46,1.63,1.73,4.01,3.32.59.4,2.06,1.44,3.27,1.88.83.3,2.01.42,3.36.08.93-.24,2.11-.83,2.76-1.91.24-.41,1.19-1.99.52-1.59-1.64.99-2.97.55-3.75.07-1.2-.73-.52-.07-1.58-1.59-.14-.2-.92-1.24-.83-2.48.12-1.54,1.57-3.28,1.57-3.49-.77-.03-3.05.07-4.41.44-1.41.38-3.08.78-3.5,1.07-.21.14-1.99.56-2.44,2.08-.32,1.09.92,1.99,1.03,2.13Z"/><path class="cls-1" d="m125.31,120.37c-2.38.05-4.34,1.1-6.26,2.39-2.49,1.67-5.03,1.63-7.57.01-.97-.62-1.92-1.31-2.98-1.71-3.12-1.16-6.17-.97-9.06.79-.57.35-1.1.75-1.67,1.09-2.38,1.4-4.73,1.35-7.12-.05-1.4-.82-2.81-1.75-4.34-2.18-3.25-.91-6.24-.11-9,1.85-2.76,1.96-5.27,1.89-8.1.04-.88-.58-1.78-1.2-2.75-1.56-3.09-1.14-6.12-.95-8.98.77-.57.34-1.1.75-1.67,1.09-2.4,1.45-4.84,1.49-7.18-.06-2-1.33-4.02-2.45-6.5-2.48-1.25-.02-2.11.62-2.16,1.69-.06,1.1.69,1.73,1.95,1.92,1.08.17,2.26.37,3.17.93,1.84,1.13,3.64,2.26,5.8,2.65h2.73c2.2-.37,4.01-1.55,5.87-2.69,2.25-1.39,4.58-1.2,6.87.12,1.45.84,2.98,1.55,4.49,2.28.34.17.75.2,1.13.29h2.73c2.19-.4,4-1.58,5.85-2.72,2.09-1.28,4.37-1.28,6.46,0,1.86,1.14,3.66,2.32,5.85,2.73h2.73c2.2-.36,4.02-1.51,5.87-2.67,2.18-1.36,4.53-1.34,6.69.02,1.82,1.15,3.62,2.28,5.78,2.65h2.73c2.19-.39,4.02-1.54,5.87-2.69.86-.53,1.97-.73,3-.88,1.34-.19,2.1-.8,2.04-1.93-.06-1.1-.93-1.71-2.25-1.69Z"/><path class="cls-1" d="m106.87,73.75c-1.28-.43-2.63-.75-3.97-.9-.98-.11-2.09-.06-3,.29-3.2,1.2-6.35,2.54-9.48,3.91-1.42.12-1.8-.09-2.93-.24-2.79-.37-4.8-.61-7.61-.87-1.55-.14-3.5,1.46-3.62,2.96-.13,1.6,1.21,3.17,2.77,3.37,3.42.46,6.1.81,9.53,1.16.83.08,1.75-.1,2.54-.39,2-.75,3.95-1.62,6.01-2.49-.04.28-.05.45-.09.62-.67,2.95-1.37,5.89-2.01,8.84-.14.64-.43.98-.99,1.26-4.2,2.15-8.4,4.3-12.55,6.54-.73.39-1.47,1.06-1.82,1.79-2.39,5.02-4.69,10.09-6.99,15.15-.51,1.11-.4,2.25.27,3.3.75,1.17,1.86,1.71,3.24,1.62,1.47-.1,2.46-.91,3.07-2.22,1.99-4.34,3.97-8.69,6-13.01.22-.47.67-.92,1.14-1.17,2.63-1.42,5.3-2.78,7.96-4.16.28-.15.58-.26.87-.4-.28.43-.65.72-.99,1.04-.95.88-1.5,2-1.16,3.26,1.17,4.29,2.4,8.56,3.68,12.81.41,1.37,1.51,2.11,2.91,2.27,1.37.16,2.5-.38,3.3-1.51.7-.98.76-2.07.44-3.21-.84-2.9-1.63-5.82-2.52-8.71-.24-.77-.08-1.17.53-1.65,2.07-1.63,4.06-3.36,6.12-4.99,1.1-.87,1.75-1.93,2.02-3.32.48-2.52,1.08-5.02,1.63-7.57,2.12-.27,4.14-.5,6.14-.8.61-.09,1.27-.26,1.78-.59,1.8-1.19,1.68-3.63-.23-4.93-2.65-1.8-5.29-3.63-8.02-5.32-1.21-.75-2.58-1.29-3.94-1.75Z"/><path class="cls-1" d="m104.99,72.54c3.21.03,5.88-2.64,5.89-5.89.01-3.18-2.6-5.83-5.81-5.88-3.19-.05-5.87,2.56-5.93,5.75-.05,3.29,2.56,5.99,5.85,6.02Z"/><path class="cls-1" d="m96.34,116.17c-.21-.64-.59-1.59-.79-2.2-.15-.44-.33-1.53-.56-1.52-2.84.13-9.67-.24-12.51-.05-.24.02-.51.76-.6.94-.84,1.73-2.92,5.86-3.8,7.77,6.38-3.36,10.02-.74,12.68,1.15,1.56,1.11,4.61,1.39,6.19.33.8-.54,3.78-2.82,6.66-2.74-3.98-1.08-6.61-1.64-7.27-3.67Z"/><path class="cls-1" d="m108.78,120.06c1.08-.75,2.23-1.45,3.16-2.37.85-.83.7-1.94-.24-2.69-.58-.46-1.26-.84-1.95-1.12-1.81-.74-3.91-1.12-5.96-1.3.71,2.18.49,5.53-3.2,5.89.26.38,1.53.59,2.98.99,1.49.42,3.54.45,4.39.94.16.08.67-.24.82-.34Z"/></svg>