<?xml version="1.0" encoding="UTF-8"?>
<svg xmlns="http://www.w3.org/2000/svg" xmlns:xlink="http://www.w3.org/1999/xlink" viewBox="0 0 395.88 395.88">
  <defs>
    <style>
      .cls-1 {
        stroke: #c40018;
      }

      .cls-1, .cls-2, .cls-3 {
        fill: none;
        stroke-miterlimit: 10;
        stroke-width: 14px;
      }

      .cls-2 {
        stroke: #06028f;
      }

      .cls-3 {
        stroke: #f4f4f4;
      }

      .cls-4 {
        clip-path: url(#clippath);
      }

      .cls-5 {
        fill: #f9f9f9;
      }

      .cls-6 {
        fill: #06028f;
      }

      .cls-7 {
        mix-blend-mode: multiply;
      }

      .cls-8 {
        isolation: isolate;
      }
    </style>
    <clipPath id="clippath">
      <circle class="cls-5" cx="197.94" cy="197.94" r="197.94"/>
    </clipPath>
  </defs>
  <g class="cls-8">
    <g id="Calque_2" data-name="Calque 2">
      <g id="Calque_1-2" data-name="Calque 1">
        <g>
          <circle class="cls-5" cx="197.94" cy="197.94" r="197.94"/>
          <g class="cls-4">
            <g class="cls-7">
              <path class="cls-2" d="m-21.5,156.78c-7.62,0-15.29-.57-22.98-1.81-21.37-3.47-41.74-12-61.43-20.26-3.57-1.5-7.14-2.99-10.71-4.46-23.19-9.51-48.13-18.17-73.41-17.11-27.83,1.17-52.14,15.45-61.92,36.38l-1.26-.59c10-21.39,34.77-35.98,63.12-37.18,25.53-1.07,50.65,7.64,73.99,17.21,3.57,1.47,7.14,2.96,10.72,4.46,19.62,8.22,39.91,16.73,61.12,20.17,54.26,8.8,108.31-16.59,144.24-36.45,10.76-5.95,21.6-12.31,32.07-18.46,32.76-19.24,66.63-39.13,103.67-49.59,58.58-16.54,124.73-7.73,176.94,23.57,13.31,7.98,25.93,17.44,38.13,26.59,8.84,6.63,17.98,13.49,27.31,19.72,26.98,18.02,51.09,27.03,73.72,27.52,28.6.63,55.3-14.57,65.01-36.95l1.28.55c-9.92,22.88-37.22,38.39-66.31,37.79-22.9-.5-47.26-9.58-74.46-27.75-9.36-6.25-18.52-13.12-27.37-19.76-12.17-9.13-24.76-18.57-38.01-26.51-51.89-31.1-117.62-39.86-175.84-23.42-36.86,10.41-70.66,30.26-103.35,49.45-10.48,6.16-21.32,12.52-32.1,18.48-31.04,17.16-75.55,38.42-122.16,38.42Z"/>
            </g>
            <g class="cls-7">
              <path class="cls-1" d="m102.71,254.11c-14.17,0-27.67-2.62-39.99-7.96-33.16-14.38-54.74-46.24-71.48-75.5-2.54-4.44-5.04-8.92-7.55-13.41-14.54-26.02-29.57-52.93-52.33-72.32-37.78-32.18-94.87-38.58-138.84-15.56l-.65-1.23c44.46-23.28,102.19-16.81,140.39,15.73,22.95,19.55,38.05,46.57,52.65,72.7,2.51,4.49,5.01,8.96,7.54,13.4,16.63,29.07,38.04,60.7,70.83,74.92,38.51,16.7,88.81,6.4,134.53-27.56,20.29-15.07,38.6-33.18,56.32-50.7,16.05-15.87,32.64-32.28,50.69-46.42,21.66-16.98,78.17-54.36,134.87-34.84,19.73,6.79,36.71,19.78,53.13,32.34l2.11,1.61c17.82,13.61,35.5,26.29,55.83,31.74,23.03,6.18,46.34.79,59.37-13.74l1.04.93c-13.38,14.91-37.24,20.47-60.77,14.15-20.58-5.52-38.38-18.28-56.31-31.98l-2.11-1.62c-16.33-12.49-33.22-25.42-52.74-32.13-56.05-19.29-112.07,17.79-133.56,34.62-17.99,14.1-34.55,30.48-50.57,46.32-17.75,17.55-36.1,35.7-56.47,50.83-31.54,23.43-65.28,35.68-95.92,35.68Z"/>
            </g>
            <g class="cls-7">
              <path class="cls-3" d="m203.61,230.32c-63.12,0-117.4-46.24-153.14-81.55-6.28-6.21-12.64-12.65-18.79-18.88C-5.19,92.54-43.3,53.93-92.65,36.65c-56.96-19.94-123.03-7.06-168.34,32.81l-.92-1.05c22.25-19.59,50.08-33.07,80.48-39,30.39-5.92,61.25-3.88,89.23,5.92C-42.54,52.72-4.31,91.45,32.67,128.9c6.15,6.23,12.5,12.67,18.78,18.87,36.73,36.29,93.11,84.17,158.32,81,33.32-1.62,67.34-16.14,107.07-45.7,10.73-7.99,21.33-16.56,31.58-24.85,20.03-16.2,40.75-32.96,63.4-46.11,23.13-13.43,68.7-33.91,114.03-20.23,27.03,8.16,49.71,27.36,69.72,44.31l38.27,32.41-.9,1.06-38.27-32.41c-19.9-16.86-42.46-35.96-69.22-44.03-44.83-13.53-89.99,6.79-112.93,20.11-22.56,13.1-43.23,29.81-63.22,45.98-10.26,8.3-20.87,16.88-31.63,24.89-39.96,29.74-74.22,44.35-107.84,45.98-2.08.1-4.16.15-6.23.15Z"/>
            </g>
          </g>
        </g>
        <g>
          <path class="cls-6" d="m154.42,276.03v6.21h10.03v6.75h-10.03v12.51h-8.23v-32.4h20.16v6.93h-11.92Z"/>
          <path class="cls-6" d="m180.61,276.03v6.21h10.03v6.75h-10.03v12.51h-8.23v-32.4h20.16v6.93h-11.92Z"/>
          <path class="cls-6" d="m211.48,301.95h-.36l-16.47-32.85h9.04l4.14,8.95c1.35,3.02,2.7,5.94,3.46,8.28.5-1.08,2.52-6.08,3.51-8.28l4.14-8.95h9l-16.47,32.85Z"/>
          <path class="cls-6" d="m232.18,301.5v-32.4h8.23v25.47h11.7v6.93h-19.93Z"/>
        </g>
        <g>
          <path class="cls-6" d="m90.09,320.4l-.74,4.69h5.89l-.39,2.41h-5.89l-1.1,7.01h-2.9l2.62-16.56h9.89l-.39,2.44h-6.99Z"/>
          <path class="cls-6" d="m107.92,327.28c0,1.01-.3,1.77-.34,2.07h-8.03c-.25,1.93.94,3.08,3.06,3.08,1.61,0,3.38-.48,4.23-.97l-.39,2.46c-.87.44-2.48.9-4.42.9-3.4,0-5.4-2.12-5.4-5.13,0-3.93,3.2-6.97,6.78-6.97,3.04,0,4.51,2.09,4.51,4.55Zm-4.9-2.3c-1.66,0-2.85,1.29-3.22,2.74h5.38c.25-1.45-.44-2.74-2.16-2.74Zm1.7-7.31h3.59l-3.75,3.93h-2.51l2.67-3.93Z"/>
          <path class="cls-6" d="m120.59,334.52h-2.58l.14-1.2c.07-.48.18-.81.18-.81h-.05c-.76,1.22-2.48,2.3-4.25,2.3-2.67,0-4.51-1.98-4.51-5.04,0-4.23,3.04-7.06,6.35-7.06,1.77,0,3.04.9,3.5,1.89h.05s-.02-.32.09-.94l.9-5.7h2.81l-2.62,16.56Zm-8.35-5.1c0,1.77,1.01,3.01,2.62,3.01,1.75,0,3.82-1.43,3.82-4.3,0-2.02-1.29-3.01-2.64-3.01-2.12,0-3.79,1.84-3.79,4.3Z"/>
          <path class="cls-6" d="m135.49,327.28c0,1.01-.3,1.77-.34,2.07h-8.03c-.25,1.93.94,3.08,3.06,3.08,1.61,0,3.38-.48,4.23-.97l-.39,2.46c-.87.44-2.48.9-4.42.9-3.4,0-5.4-2.12-5.4-5.13,0-3.93,3.2-6.97,6.78-6.97,3.04,0,4.51,2.09,4.51,4.55Zm-4.9-2.3c-1.66,0-2.85,1.29-3.22,2.74h5.38c.25-1.45-.44-2.74-2.16-2.74Zm1.7-7.31h3.59l-3.75,3.93h-2.51l2.67-3.93Z"/>
          <path class="cls-6" d="m138.81,323.02h2.58c-.05.46-.3,1.56-.3,2v.16c.94-1.4,2.3-2.46,3.89-2.46.34,0,.64.05.71.07l-.44,2.71c-.07,0-.3-.09-.67-.09-1.98,0-3.66,2-4,4.16l-.78,4.94h-2.81l1.82-11.5Z"/>
          <path class="cls-6" d="m156.84,334.52h-2.58l.14-1.2c.07-.48.18-.81.18-.81h-.05c-.76,1.22-2.48,2.3-4.3,2.3-2.62,0-4.46-1.98-4.46-5.04,0-4.23,3.01-7.06,6.37-7.06,1.77,0,3.22,1.04,3.59,2.18h.05s-.02-.32.09-.8l.21-1.08h2.58l-1.82,11.5Zm-8.35-5.1c0,1.77,1.01,3.01,2.62,3.01,1.75,0,3.82-1.43,3.82-4.3,0-2.02-1.29-3.01-2.64-3.01-2.12,0-3.79,1.84-3.79,4.3Z"/>
          <path class="cls-6" d="m162.66,323.02l.55-3.45h2.71l-.55,3.45h3.27l-.34,2.23h-3.27l-.83,5.27c-.23,1.43.41,1.91,1.26,1.91.71,0,1.54-.23,2.16-.48l-.37,2.35c-.57.28-1.61.53-2.85.53-1.75,0-3.36-.85-3.1-3.33.05-.37.09-.76.16-1.15l.8-5.08h-1.75l.34-2.23h1.79Z"/>
          <path class="cls-6" d="m173.97,323.02l-1.82,11.5h-2.81l1.82-11.5h2.81Zm-.62-4.9c.85,0,1.4.53,1.4,1.33,0,1.08-.83,1.82-1.91,1.82-.87,0-1.4-.53-1.4-1.31,0-1.1.8-1.84,1.91-1.84Z"/>
          <path class="cls-6" d="m187.98,327.9c0,3.89-3.17,6.92-7.06,6.92-3.1,0-5.15-2.18-5.15-5.17,0-3.89,3.22-6.92,7.06-6.92,3.13,0,5.15,2.18,5.15,5.17Zm-2.69.28c0-1.82-1.13-3.06-2.83-3.06-2.14,0-4,1.79-4,4.23,0,1.84,1.15,3.08,2.83,3.08,2.18,0,4-1.79,4-4.25Z"/>
          <path class="cls-6" d="m194.17,323.02l-.16,1.47c-.07.44-.21.74-.23.83h.05c.64-1.06,2.39-2.6,4.58-2.6,2.71,0,3.73,1.63,3.27,4.6l-1.15,7.2h-2.81l1.06-6.71c.21-1.33.09-2.53-1.47-2.53-1.91,0-3.52,1.52-3.84,3.54l-.9,5.7h-2.81l1.82-11.5h2.6Z"/>
          <path class="cls-6" d="m215.14,320.4l-.74,4.69h5.89l-.39,2.41h-5.89l-1.1,7.01h-2.9l2.62-16.56h9.89l-.39,2.44h-6.99Z"/>
          <path class="cls-6" d="m223.01,323.02h2.58c-.05.46-.3,1.56-.3,2v.16c.94-1.4,2.3-2.46,3.89-2.46.34,0,.64.05.71.07l-.44,2.71c-.07,0-.3-.09-.67-.09-1.98,0-3.66,2-4,4.16l-.78,4.94h-2.81l1.82-11.5Z"/>
          <path class="cls-6" d="m241.04,334.52h-2.58l.14-1.2c.07-.48.18-.81.18-.81h-.05c-.76,1.22-2.48,2.3-4.3,2.3-2.62,0-4.46-1.98-4.46-5.04,0-4.23,3.01-7.06,6.37-7.06,1.77,0,3.22,1.04,3.59,2.18h.05s-.02-.32.09-.8l.21-1.08h2.58l-1.82,11.5Zm-8.35-5.1c0,1.77,1.01,3.01,2.62,3.01,1.75,0,3.82-1.43,3.82-4.3,0-2.02-1.29-3.01-2.64-3.01-2.12,0-3.79,1.84-3.79,4.3Z"/>
          <path class="cls-6" d="m249.14,323.02l-.16,1.47c-.07.44-.21.74-.23.83h.05c.64-1.06,2.39-2.6,4.58-2.6,2.71,0,3.73,1.63,3.27,4.6l-1.15,7.2h-2.81l1.06-6.71c.21-1.33.09-2.53-1.47-2.53-1.91,0-3.52,1.52-3.84,3.54l-.9,5.7h-2.81l1.82-11.5h2.6Z"/>
          <path class="cls-6" d="m264.66,332.36c1.47,0,2.78-.62,3.43-.99l-.41,2.55c-.6.3-1.82.85-3.52.9l-.48.9c.92.05,1.95.62,1.95,1.77,0,1.63-1.49,2.39-3.29,2.39-.69,0-1.33-.11-1.47-.18l.28-1.68c.11.05.51.16.99.16.6,0,1.36-.25,1.36-.9s-.97-.81-1.82-.69l1.06-1.89c-2.48-.44-3.96-2.46-3.96-5.04,0-3.89,3.08-6.95,7.11-6.95,1.82,0,2.83.58,3.36.87l-.41,2.58c-.62-.48-1.7-.99-3.04-.99-2.32,0-4.14,1.72-4.14,4.16,0,1.79,1.15,3.01,3.01,3.01Z"/>
          <path class="cls-6" d="m281.47,334.52h-2.58l.14-1.2c.07-.48.18-.81.18-.81h-.05c-.76,1.22-2.48,2.3-4.3,2.3-2.62,0-4.46-1.98-4.46-5.04,0-4.23,3.01-7.06,6.37-7.06,1.77,0,3.22,1.04,3.59,2.18h.05s-.02-.32.09-.8l.21-1.08h2.58l-1.82,11.5Zm-8.35-5.1c0,1.77,1.01,3.01,2.62,3.01,1.75,0,3.82-1.43,3.82-4.3,0-2.02-1.29-3.01-2.64-3.01-2.12,0-3.79,1.84-3.79,4.3Z"/>
          <path class="cls-6" d="m289.78,323.02l-1.82,11.5h-2.81l1.82-11.5h2.81Zm-.62-4.9c.85,0,1.4.53,1.4,1.33,0,1.08-.83,1.82-1.91,1.82-.87,0-1.4-.53-1.4-1.31,0-1.1.8-1.84,1.91-1.84Z"/>
          <path class="cls-6" d="m295.14,329.78c-1.79-.57-3.04-1.38-3.04-3.15,0-2.34,2.02-3.91,4.83-3.91,1.45,0,2.69.37,3.36.69l-.37,2.46c-.74-.41-1.82-.78-2.85-.83-.39,0-.78.02-1.13.09-.67.18-1.24.53-1.24,1.22,0,.64.62,1.01,1.86,1.4,2.12.69,3.22,1.52,3.22,3.15,0,2.48-2.09,3.91-5.06,3.91-1.63,0-2.92-.37-3.73-.76l.39-2.51c1.01.58,2.51,1.01,3.61,1.01s2.16-.37,2.16-1.33c0-.71-.71-1.01-2.02-1.45Z"/>
          <path class="cls-6" d="m313.12,327.28c0,1.01-.3,1.77-.34,2.07h-8.03c-.25,1.93.94,3.08,3.06,3.08,1.61,0,3.38-.48,4.23-.97l-.39,2.46c-.87.44-2.48.9-4.42.9-3.4,0-5.4-2.12-5.4-5.13,0-3.93,3.2-6.97,6.78-6.97,3.04,0,4.51,2.09,4.51,4.55Zm-4.9-2.3c-1.66,0-2.85,1.29-3.22,2.74h5.38c.25-1.45-.44-2.74-2.16-2.74Z"/>
          <path class="cls-6" d="m146.27,362.12h-2.58l.14-1.2c.07-.48.18-.81.18-.81h-.05c-.76,1.22-2.48,2.3-4.25,2.3-2.67,0-4.51-1.98-4.51-5.04,0-4.23,3.04-7.06,6.35-7.06,1.77,0,3.04.9,3.5,1.89h.05s-.02-.32.09-.94l.9-5.7h2.81l-2.62,16.56Zm-8.35-5.1c0,1.77,1.01,3.01,2.62,3.01,1.75,0,3.82-1.43,3.82-4.3,0-2.02-1.29-3.01-2.64-3.01-2.12,0-3.79,1.84-3.79,4.3Z"/>
          <path class="cls-6" d="m161.17,354.88c0,1.01-.3,1.77-.34,2.07h-8.03c-.25,1.93.94,3.08,3.06,3.08,1.61,0,3.38-.48,4.23-.97l-.39,2.46c-.87.44-2.48.9-4.42.9-3.4,0-5.4-2.12-5.4-5.13,0-3.93,3.2-6.97,6.78-6.97,3.04,0,4.51,2.09,4.51,4.55Zm-4.9-2.3c-1.66,0-2.85,1.29-3.22,2.74h5.38c.25-1.45-.44-2.74-2.16-2.74Z"/>
          <path class="cls-6" d="m174.67,362.37h-.09l-5.24-16.81h3.13l1.45,4.97c.62,2.25,1.17,4.07,1.61,6.03.99-1.75,2.3-3.91,3.59-6.03l2.99-4.97h3.13l-10.55,16.81Z"/>
          <path class="cls-6" d="m194.29,355.5c0,3.89-3.17,6.92-7.06,6.92-3.1,0-5.15-2.18-5.15-5.17,0-3.89,3.22-6.92,7.06-6.92,3.13,0,5.15,2.18,5.15,5.17Zm-2.69.28c0-1.82-1.13-3.06-2.83-3.06-2.14,0-4,1.79-4,4.23,0,1.84,1.15,3.08,2.83,3.08,2.18,0,4-1.79,4-4.25Z"/>
          <path class="cls-6" d="m198.43,345.57h2.81l-2.02,12.83c-.18,1.15.16,1.59.99,1.59.46,0,.92-.12,1.1-.18l-.37,2.35c-.25.09-.97.28-1.91.28-1.84,0-3.13-.94-2.71-3.43l2.12-13.43Z"/>
          <path class="cls-6" d="m209.36,362.12l2.62-16.56h2.9l-2.23,14.12h6.74l-.39,2.44h-9.63Z"/>
          <path class="cls-6" d="m225.89,350.62l-1.82,11.5h-2.81l1.82-11.5h2.81Zm-.62-4.9c.85,0,1.4.53,1.4,1.33,0,1.08-.83,1.82-1.91,1.82-.87,0-1.4-.53-1.4-1.31,0-1.1.8-1.84,1.91-1.84Z"/>
          <path class="cls-6" d="m230.4,345.57h2.81l-.9,5.7c-.11.62-.23.94-.23.94h.05c.78-.99,2.32-1.89,4.09-1.89,2.6,0,4.44,1.96,4.44,5.01,0,4.21-3.01,7.08-6.39,7.08-1.79,0-3.2-1.08-3.54-2.3h-.05s.05.32-.09.81l-.23,1.2h-2.58l2.62-16.56Zm1.1,11.45c0,2.02,1.29,3.01,2.64,3.01,2.12,0,3.79-1.86,3.79-4.3,0-1.79-.99-3.01-2.62-3.01-1.75,0-3.82,1.43-3.82,4.3Z"/>
          <path class="cls-6" d="m244.11,350.62h2.58c-.05.46-.3,1.56-.3,2v.16c.94-1.4,2.3-2.46,3.89-2.46.34,0,.64.05.71.07l-.44,2.71c-.07,0-.3-.09-.67-.09-1.98,0-3.66,2-4,4.16l-.78,4.94h-2.81l1.82-11.5Z"/>
          <path class="cls-6" d="m262.62,354.88c0,1.01-.3,1.77-.34,2.07h-8.03c-.25,1.93.94,3.08,3.06,3.08,1.61,0,3.38-.48,4.23-.97l-.39,2.46c-.87.44-2.48.9-4.42.9-3.4,0-5.4-2.12-5.4-5.13,0-3.93,3.2-6.97,6.78-6.97,3.04,0,4.51,2.09,4.51,4.55Zm-4.9-2.3c-1.66,0-2.85,1.29-3.22,2.74h5.38c.25-1.45-.44-2.74-2.16-2.74Z"/>
        </g>
      </g>
    </g>
  </g>
</svg>