<?xml version="1.0" encoding="UTF-8"?>
<svg id="Calque_1" data-name="Calque 1" xmlns="http://www.w3.org/2000/svg" viewBox="0 0 127.56 127.56">
  <path d="m109.83,37.54c-.53.33-1.13.58-1.58,1-5.6,5.22-11.19,10.47-16.77,15.71-5.95,5.59-11.9,11.18-17.86,16.75-.49.46-.74.88-.64,1.6.17,1.18.17,2.39.3,3.58.15,1.34-.39,2.19-1.62,2.74-2.75,1.23-5.46,2.57-8.22,3.78-.96.42-1.42.98-1.56,2.02-.57,4.21-1.22,8.41-1.84,12.61-.3,1.99-.61,3.97-.92,5.95-.13.8-.52,1.43-1.15,1.94-2.62,2.11-5.22,4.25-7.84,6.36-1.86,1.5-1.87,1.49-2.33,3.74-.65,3.22-1.34,6.43-1.91,9.66-.26,1.49-1.59,2.78-3.63,2.24-1.54-.41-2.34-1.63-2.07-3.27.18-1.14.43-2.28.66-3.41.62-3.14,1.25-6.29,1.87-9.43.17-.88.66-1.56,1.34-2.11,1.11-.91,2.23-1.8,3.34-2.7.35-.29.7-.58,1.22-1.02-.38,0-.55-.03-.69,0-2.61.7-5.22,1.43-7.84,2.1-.62.16-.88.51-1.07,1.06-1.1,3.22-2.22,6.43-3.34,9.64-.08.22-.14.44-.23.66-.6,1.44-1.91,2.03-3.41,1.57-1.64-.5-2.46-1.68-2.08-3.23.31-1.27.79-2.5,1.22-3.74.99-2.89,2.02-5.76,2.98-8.66.44-1.34,1.24-2.09,2.65-2.43,3.19-.77,6.35-1.71,9.53-2.54.78-.2,1.14-.53,1.26-1.37.65-4.59,1.36-9.17,2.06-13.75.11-.73.25-1.45.39-2.17.12-.63-.05-1.07-.6-1.48-2.5-1.82-4.96-3.7-7.44-5.55-1.26-.94-1.49-1.68-1.02-3.22.43-1.4.81-2.83,1.31-4.2.26-.71.11-1.25-.25-1.84-1.81-2.97-3.61-5.95-5.4-8.93-3.9-6.45-7.8-12.91-11.69-19.36-2.02-3.34-4.03-6.69-6.07-10.02-.21-.34-.53-.65-.88-.87-.42-.27-.5-.57-.3-.97.26-.52.51-1.05.85-1.51,4.84-6.8,10.41-12.86,17.49-17.41,5.04-3.24,10.53-5.35,16.44-6.37,5.55-.96,11.09-.84,16.64.03,5.04.79,9.88,2.18,14.51,4.36,5.24,2.47,9.85,5.81,13.85,10,5.45,5.72,9.31,12.41,12.02,19.78.31.86.46,1.77.69,2.66-.1,0-.21,0-.31,0Zm-77.68-14.13c.15.46.25.82.38,1.18,2.16,6.12,4.33,12.24,6.49,18.36,1.99,5.65,3.98,11.29,5.97,16.94.23.65.48,1.08,1.34,1.15,1.75.15,2.48,1.35,2.02,3.03-.19.71-.48,1.39-.65,2.1-.09.39-.13.86,0,1.23.94,2.78,1.92,5.55,2.92,8.31.31.86,1,1.39,1.9,1.52,2.83.44,5.66.82,8.49,1.26.44.07.76,0,1.04-.31.24-.25.46-.52.66-.8,1.64-2.3,3.26-4.61,4.91-6.9.32-.44.44-.88.39-1.4-.1-.92-.21-1.85-.25-2.77-.06-1.35.7-2.24,2.05-2.3.66-.03,1.32.2,2.12.34.19-.25.48-.6.75-.98,6.21-8.78,12.41-17.56,18.62-26.34,1.18-1.67,2.38-3.33,3.57-5.01.75-1.06.78-1.1-.22-1.99-1.3-1.15-2.61-2.32-4.01-3.35-3.57-2.62-7.44-4.73-11.54-6.41-6.25-2.57-12.71-4.22-19.49-4.31-6.69-.09-13.16,1.22-19.4,3.59-2.75,1.05-5.43,2.23-8.06,3.84Zm40.68,47.46c.31-.21.5-.31.66-.46,1.25-1.16,2.49-2.32,3.73-3.48,7.02-6.59,14.04-13.17,21.06-19.76,3.24-3.04,6.5-6.07,9.74-9.12.92-.86.92-.99.22-2.04-.69-1.02-1.62-1.76-2.66-2.37-2.7-1.58-5.67-2.19-8.75-2.41-.57-.04-.93.14-1.24.62-.77,1.16-1.59,2.28-2.39,3.42-6.66,9.4-13.3,18.8-19.99,28.18-.69.96-1.06,1.84-.83,3.05.26,1.39.31,2.82.46,4.37Zm-30.07-4.62c.18-.5.28-.74.36-.99.4-1.16.71-2.38,1.26-3.47.25-.5.39-.84.21-1.36-.63-1.74-1.22-3.5-1.84-5.25-3.07-8.71-6.15-17.42-9.22-26.12-.57-1.6-1.17-3.19-1.72-4.8-.2-.59-.52-.89-1.16-.9-1.2-.03-2.4-.21-3.59-.16-2.69.12-5.17.93-7.29,2.65-.32.26-.61.57-.92.86,7.97,13.17,15.87,26.27,23.93,39.54Zm25.42,4.71c-.93.78-4.21,5.48-4.61,6.59,1.52-.72,2.94-1.37,4.34-2.07.24-.12.54-.45.54-.67-.04-1.24-.16-2.49-.26-3.85Zm-18.51,4.25c-.7-2.38-1.42-4.74-2.54-6.98-.41,1-.74,1.99-.97,2.99-.07.3.07.67.2.98.62,1.49,2.02,2.16,3.31,3.01Z"/>
  <path d="m60.91,97.13c.21-1.47.41-2.92.62-4.37.39-2.64.82-5.27,1.18-7.91.1-.74.41-1.16,1.13-1.43.93-.34,1.81-.81,2.93-1.31-.21,1.43-.38,2.63-.56,3.84-.44,2.9-.88,5.81-1.32,8.71-.01.08-.02.15-.03.23-.24,2.18-2.06,3.2-3.95,2.24Z"/>
  <path d="m64.29,70.4c.12,3.59-2.82,6.65-6.54,6.75-3.7.1-6.73-2.91-6.77-6.64-.04-3.69,2.87-6.68,6.54-6.72,4.06-.05,6.89,3.31,6.76,6.61Z"/>
</svg>